<?xml version="1.0" encoding="UTF-8"?>
<svg id="Layer_2" data-name="Layer 2" xmlns="http://www.w3.org/2000/svg" xmlns:xlink="http://www.w3.org/1999/xlink" viewBox="0 0 69.73 89.79">
  <defs>
    <style>
      .cls-1 {
        fill: #fff169;
      }

      .cls-2 {
        fill: #ffb32c;
      }

      .cls-3 {
        fill: #ff6529;
      }

      .cls-4 {
        fill: url(#radial-gradient-2);
      }

      .cls-5 {
        fill: url(#radial-gradient);
      }
    </style>
    <radialGradient id="radial-gradient" cx="32.62" cy="46.15" fx="32.62" fy="46.15" r="38.52" gradientUnits="userSpaceOnUse">
      <stop offset="0" stop-color="#fff" stop-opacity="0"/>
      <stop offset="1" stop-color="#fff" stop-opacity=".1"/>
    </radialGradient>
    <radialGradient id="radial-gradient-2" cx="32.33" cy="64.5" fx="32.33" fy="64.5" r="22.09" xlink:href="#radial-gradient"/>
  </defs>
  <g id="Layer_1-2" data-name="Layer 1">
    <g>
      <path class="cls-3" d="m67.29,59.45c-1.57,4.57-3.85,8.84-6.75,12.66-7.01,9.26-17.57,15.83-29.99,17.5-10.87,1.47-19.15-6.61-22.29-11.07-3.66-5.19-6.08-10.89-7.3-16.74-2.62-12.47.15-25.63,7.74-36.01,1.7-2.32,5.35-1.64,6.13,1.13.38,1.36.9,2.75,1.6,3.97.01.03.03.05.04.07,2.35,4.02,8.41,3.3,9.85-1.12,2.03-6.25,2.72-13.05,1.79-19.99-.26-1.89-.62-3.73-1.1-5.52-.17-.64-.15-1.27.03-1.84.46-1.58,2.05-2.73,3.87-2.47,13.53,1.92,25.43,9.93,32.37,21.49,3.08,5.11,5.19,10.93,6.04,17.22.97,7.21.19,14.25-2.02,20.7Z"/>
      <path class="cls-5" d="m65.23,51c0,7.54-1.67,14.7-4.69,21.11-7.01,9.26-17.57,15.83-29.99,17.5-10.87,1.47-19.15-6.61-22.29-11.07-3.66-5.19-6.08-10.89-7.3-16.74-2.62-12.47.15-25.63,7.74-36.01,1.7-2.32,5.35-1.64,6.13,1.13.38,1.36.9,2.75,1.6,3.97.01.03.03.05.04.07,2.35,4.02,8.41,3.3,9.85-1.12,2.03-6.25,2.72-13.05,1.79-19.99-.26-1.89-.62-3.73-1.1-5.52-.17-.64-.15-1.27.03-1.84,21.91,5.25,38.2,24.96,38.2,48.49Z"/>
      <path class="cls-2" d="m52.56,73.53c-1.65,3.61-4.09,6.81-7.1,9.35-4.42,3.74-10.08,6.07-16.31,6.29-6.49.23-10.9-5.01-12.5-7.82-1.85-3.27-2.95-6.77-3.33-10.29-.82-7.51,1.58-15.12,6.66-20.8,2.09-2.33,4.23,1.92,6.58,1.49,2.44-.45,6.15-2.66,5.77-9.74-.04-.74-.09-1.47-.18-2.19-.04-.38-.09-.76-.15-1.13-.23-1.46,1.11-2.66,2.54-2.31,7.87,1.92,14.42,7.33,17.84,14.55,1.52,3.2,2.42,6.75,2.56,10.51.16,4.31-.72,8.41-2.4,12.09Z"/>
      <path class="cls-1" d="m47.33,71.06c.1,2.73-.45,5.34-1.52,7.67-2.59,5.67-8.21,9.69-14.86,9.93-4.12.15-6.92-3.18-7.93-4.96-1.18-2.08-1.87-4.3-2.11-6.53-.46-4.18.66-8.41,3.12-11.82.97-1.34,7.83,1.54,8.95-6.61.05-.37-.04-.73-.07-1.1-.15-1.46,1.27-2.6,2.67-2.14,4.46,1.44,8.14,4.68,10.14,8.9.96,2.03,1.54,4.28,1.62,6.67Z"/>
      <path class="cls-4" d="m51.49,65.83c0,6.46-2.25,12.39-6.02,17.05-4.42,3.74-10.08,6.07-16.31,6.29-6.49.23-10.9-5.01-12.5-7.82-1.85-3.27-2.95-6.77-3.33-10.29-.82-7.51,1.58-15.12,6.66-20.8,2.09-2.33,4.23,1.92,6.58,1.49,2.44-.45,6.15-2.66,5.77-9.74-.04-.74-.09-1.47-.18-2.19,11.18,3.36,19.32,13.73,19.32,26Z"/>
    </g>
  </g>
</svg>